# xmcd
# 
# Track frame offsets:
#     150
#     20918
#     43579
#     60419
#     71846
#     87257
#     102035
#     142833
#     150339
#     172685
#     185607
#     199071
#     220870
#     235870
#     249972
#     259894
#     270488
#     286364
# 
# Disc length: 3949
# 
# Revision: 2
# Processed by: cddbd v1.5.2PL0 Copyright (c) Steve Scherf et al.
# Submitted via: fre:ac v1.1beta1pre4
# 
DISCID=f40f6b12
DTITLE=Various Artist - Can You Dig It The Music An Politics Of Black Actions Films 1968-1975
DYEAR=2009
DGENRE=R&B
TTITLE0=Isaac Hayes - Shaft (Shaft, 1971)
TTITLE1=Curtis Mayfield - Pusherman [Superfly, 1972]
TTITLE2=Joe Simon - Theme From Cleopatra Jones [Cleopatra Jones, 1973]
TTITLE3=Johnny Pate - You Can't Even Walk In The Park [Shaft in Africa, 1973]
TTITLE4=Brer Soul and Earth, Wind And Fire - Sweetback's Theme [Sweet Sweeback's Baadasssss Song, 1971]
TTITLE5=James Brown - Make It Good To Yourself [Black Caesar, 1973]
TTITLE6=Isaac Hayes - Pursuit Of The Pimpmobile [Truck Turner, 1973]
TTITLE7=Grant Green - Travelling To Get To Doc [The Final Comedown, 1972]
TTITLE8=Booker T And The MG's - Time Is Tight [Uptight!, 1968]
TTITLE9=Roy Ayers - Aragon [Coffy, 1973]
TTITLE10=Edwin Starr - Easin’ In [Hell Up in Harlem, 1973]
TTITLE11=Gordon Staples And The String Thing - Strung Out [Mean Johnny Barrows, 1975]
TTITLE12=Nat Dove And The Devils - Zombie March [Petey Wheatstraw, 1974]
TTITLE13=The Impressions - Make A Resolution [Three the Hard Way, 1974]
TTITLE14=Solomon Burke And Gene Page - The Bus [Cool Breeze, 1972]
TTITLE15=Jack Ashford - Las Vegas Strut [Blackjack, 1978]
TTITLE16=Don Julian - Lay It On Your Head [Savage, 1973]
TTITLE17=Galt Macdermot - Ed And Digger [Cotton comes to Harlem, 1970]
EXTD=
EXTT0=
EXTT1=
EXTT2=
EXTT3=
EXTT4=
EXTT5=
EXTT6=
EXTT7=
EXTT8=
EXTT9=
EXTT10=
EXTT11=
EXTT12=
EXTT13=
EXTT14=
EXTT15=
EXTT16=
EXTT17=
PLAYORDER=
